<?xml version="1.0" encoding="UTF-8" standalone="no"?>
<svg
   version="1.1"
   width="326.2868"
   height="401.59872"
   id="svg1"
   sodipodi:docname="GLYPHDlogo.svg"
   inkscape:version="1.4.2 (f4327f4, 2025-05-13)"
   xmlns:inkscape="http://www.inkscape.org/namespaces/inkscape"
   xmlns:sodipodi="http://sodipodi.sourceforge.net/DTD/sodipodi-0.dtd"
   xmlns="http://www.w3.org/2000/svg"
   xmlns:svg="http://www.w3.org/2000/svg">
  <defs
     id="defs1" />
  <sodipodi:namedview
     id="namedview1"
     pagecolor="#ffffff"
     bordercolor="#000000"
     borderopacity="0.25"
     inkscape:showpageshadow="2"
     inkscape:pageopacity="0.0"
     inkscape:pagecheckerboard="0"
     inkscape:deskcolor="#d1d1d1"
     inkscape:zoom="1.7933333"
     inkscape:cx="162.82528"
     inkscape:cy="207.15613"
     inkscape:window-width="1920"
     inkscape:window-height="1009"
     inkscape:window-x="-8"
     inkscape:window-y="-8"
     inkscape:window-maximized="1"
     inkscape:current-layer="svg1" />
  <path
     d="m 165.89235,0.19680459 c 2.66052,1.63971421 2.66052,1.63971421 5,4.00000001 0.62247,2.7940397 0.62247,2.7940397 0.61904,6.0770724 0.011,1.246201 0.0219,2.492402 0.0332,3.776367 -0.013,1.378529 -0.0265,2.757054 -0.0404,4.135575 0.004,1.453956 0.009,2.907908 0.0172,4.361847 0.0122,3.130575 0.009,6.260605 -0.007,9.391164 -0.0243,4.955477 -0.0128,9.910477 0.004,14.865961 0.0245,8.737673 0.0187,17.475128 0.006,26.212815 -0.0186,13.136415 -0.0137,26.272788 0.02,39.409164 0.0115,4.92002 0.007,9.83969 -0.01,14.75969 -0.008,3.07061 -0.004,6.14112 0.004,9.21173 8.1e-4,1.41689 -0.003,2.8338 -0.0134,4.25066 -0.0714,10.68734 0.48256,19.63888 8.21438,27.56431 6.69987,6.17193 14.76915,9.2425 23.40332,11.67114 1.12044,0.32396 2.24087,0.64792 3.39526,0.98169 15.57066,4.38623 31.34811,8.01892 47.09302,11.71753 0.92111,0.21746 1.84221,0.43493 2.79123,0.65898 4.87066,1.14211 9.74713,2.23243 14.64383,3.25752 1.00452,0.21478 2.00903,0.42955 3.04399,0.65084 1.91843,0.40829 3.83945,0.80462 5.76322,1.18698 8.14711,1.74963 8.14711,1.74963 11.01945,5.85896 0.76204,3.97956 0.31066,5.51329 -1.875,8.9375 -5.27531,3.4817 -10.6889,1.55398 -16.66699,0.3479 -3.97325,-0.87577 -7.93539,-1.79002 -11.89551,-2.7229 -15.12354,-3.94854 -15.12354,-3.94854 -30.56249,-5.5625 0.75281,0.57105 1.50562,1.14211 2.28125,1.73047 7.23441,5.51501 14.33955,11.16221 21.33593,16.97729 0.64325,0.52957 1.28649,1.05913 1.94922,1.60474 0.56663,0.47051 1.13325,0.94102 1.71704,1.42578 3.20269,2.35407 5.99562,3.49306 9.95582,3.82422 0.82897,0.0735 1.65793,0.14695 2.51202,0.22266 1.33741,0.10634 1.33741,0.10634 2.70185,0.21484 1.39952,0.12182 1.39952,0.12182 2.82733,0.24609 2.98924,0.259 5.97927,0.50705 8.96954,0.75391 22.78506,1.9219 22.78506,1.9219 31.98437,2.9375 1.24492,0.13277 2.48983,0.26555 3.77247,0.40234 3.0862,0.68068 4.25733,1.05411 5.99316,3.66016 0.65585,6.12127 0.65585,6.12127 -1.26692,8.69746 -2.1277,1.59913 -3.19764,1.66748 -5.83733,1.64312 -1.23093,-3.4e-4 -1.23093,-3.4e-4 -2.48674,-6.9e-4 -0.88134,-0.0155 -1.76268,-0.031 -2.67073,-0.0469 -1.35869,-0.006 -1.35869,-0.006 -2.74483,-0.0129 -2.89395,-0.0168 -5.78721,-0.0545 -8.68095,-0.0926 -1.96158,-0.0151 -3.92317,-0.0287 -5.88477,-0.041 -4.80951,-0.0331 -9.6185,-0.0849 -14.42773,-0.14649 0.63414,0.56848 1.26828,1.13695 1.92163,1.72266 7.19746,6.46308 14.30885,13.00627 21.34107,19.64843 1.5514,1.45461 3.1235,2.88709 4.69824,4.31641 0.81726,0.76312 1.63453,1.52625 2.47656,2.3125 0.69996,0.63937 1.39992,1.27875 2.12109,1.9375 1.95824,2.80203 1.7706,4.71649 1.44141,8.0625 -1,2.375 -1,2.375 -3,4 -4.06582,0.75803 -6.4353,1.00969 -9.94922,-1.25781 -2.10513,-1.83612 -4.0738,-3.76884 -6.05078,-5.74219 -1.65927,-1.50818 -3.32623,-3.00794 -5,-4.5 -0.83273,-0.75152 -1.66547,-1.50305 -2.52344,-2.27734 -3.46294,-3.10791 -6.9639,-6.17116 -10.47656,-9.22266 1.79974,8.18172 3.76972,16.28555 6.08203,24.33984 0.18243,0.63917 0.36487,1.27834 0.55283,1.93688 0.92054,3.22385 1.8543,6.44205 2.81045,9.65565 0.34418,1.20052 0.68836,2.40104 1.04297,3.63794 0.4724,1.60513 0.4724,1.60513 0.95435,3.24268 0.6508,3.72126 0.44678,6.52106 -0.44263,10.18701 -3.48869,2.32579 -4.89719,2.41865 -9,2 -3.6814,-2.12977 -4.70118,-4.07386 -5.85937,-8.10376 -0.30712,-1.04282 -0.61424,-2.08563 -0.93067,-3.16005 -0.31679,-1.13111 -0.63357,-2.26221 -0.95996,-3.4276 -0.33999,-1.17384 -0.67998,-2.34769 -1.03027,-3.55711 -0.71934,-2.49391 -1.43172,-4.98984 -2.1377,-7.48756 -1.0643,-3.76372 -2.14919,-7.52098 -3.23828,-11.27759 -6.57029,-22.83952 -6.57029,-22.83952 -8.4336,-33.57814 -1.30467,-6.7971 -5.04762,-10.17539 -10.52685,-14.06346 -2.18035,-1.55683 -4.29704,-3.18511 -6.41846,-4.82129 -4.26533,-3.26954 -8.57634,-6.47139 -12.91016,-9.64942 -2.39921,-1.75997 -4.78991,-3.53095 -7.17968,-5.30371 -17.49235,-12.89684 -17.49235,-12.89684 -36.375,-23.57031 7.9094,13.10941 16.27897,25.21823 26.69921,36.48828 1.88616,2.05908 3.71125,4.14888 5.53125,6.26563 3.92708,4.50259 8.13424,8.68606 12.39454,12.87109 2.81699,2.76775 5.61412,5.55121 8.375,8.375 0.51659,0.52046 1.03318,1.04092 1.56543,1.57715 7.20123,7.81321 5.95351,19.3919 6.11816,29.33691 0.43716,9.06851 3.08684,13.62495 9.31641,20.08594 0.97765,1.14873 1.94765,2.30407 2.90625,3.46875 0.85593,1.00031 1.71187,2.00063 2.59375,3.03125 0.93407,1.10636 1.86766,2.21314 2.80078,3.32031 1.70398,2.01805 3.42935,4.00525 5.17969,5.98438 5.32781,6.20478 5.32781,6.20478 6.26953,11.07031 -0.89086,3.7119 -1.52868,5.06005 -4.75,7.125 -3.3125,0.6875 -3.3125,0.6875 -7,0 -4.52884,-3.20707 -7.79654,-7.95656 -11.22266,-12.25781 -0.71035,-0.89091 -1.42071,-1.78181 -2.15259,-2.69971 -0.53617,-0.67402 -1.07234,-1.34804 -1.62475,-2.04248 -0.014,1.56682 -0.014,1.56682 -0.0283,3.16528 -0.0399,3.87495 -0.10562,7.7491 -0.1792,11.62354 -0.0282,1.67698 -0.0494,3.35409 -0.0635,5.03125 -0.0214,2.41093 -0.068,4.82026 -0.11963,7.23071 -0.001,0.7501 -0.002,1.5002 -0.004,2.27303 -0.14599,5.18602 -0.14599,5.18602 -2.45624,7.64958 -2.93094,1.39988 -4.93795,1.42805 -8.14943,1.02661 -2.42542,-1.42301 -3.76509,-2.22203 -4.5918,-4.95985 -0.0628,-1.13955 -0.0628,-1.13955 -0.12695,-2.30211 -0.0554,-0.8918 -0.11086,-1.7836 -0.16797,-2.70243 -0.0374,-1.00175 -0.0748,-2.0035 -0.11328,-3.03561 -0.0477,-1.09884 -0.0954,-2.19767 -0.14454,-3.3298 -0.11943,-3.14273 -0.21765,-6.28514 -0.30102,-9.42902 -0.0558,-2.10004 -0.11611,-4.19991 -0.17749,-6.29979 -0.12958,-4.45952 -0.25365,-8.91919 -0.37695,-13.37889 -0.14313,-5.17224 -0.28864,-10.34439 -0.4397,-15.51641 -0.0587,-2.04861 -0.11332,-4.09731 -0.16773,-6.14605 -0.26013,-18.65348 -0.26013,-18.65348 -10.58007,-33.21254 -0.55881,-0.54979 -1.11762,-1.09957 -1.69336,-1.66602 -1.36852,-1.34512 -2.74321,-2.68395 -4.11914,-4.02148 0.0236,0.9761 0.0236,0.9761 0.0476,1.97192 0.0623,2.94677 0.10138,5.89341 0.13989,8.84058 0.0251,1.02416 0.0503,2.04832 0.0762,3.10352 0.0145,1.47436 0.0145,1.47436 0.0293,2.97851 0.0157,0.90597 0.0314,1.81194 0.0476,2.74536 -0.4074,2.82314 -1.11726,3.63949 -3.34058,5.36011 -2.84084,1.42042 -4.85478,1.31452 -8,1 -3.07841,-2.25738 -3.91553,-3.63042 -4.77369,-7.38477 -0.14624,-1.3387 -0.27401,-2.67951 -0.38647,-4.02148 -0.11401,-1.08082 -0.11401,-1.08082 -0.23033,-2.18347 -0.24068,-2.3021 -0.45791,-4.60557 -0.67201,-6.91028 -1.02078,-18.57303 -1.02078,-18.57303 -8.5625,-34.9375 -0.69739,-0.88816 -1.39477,-1.77633 -2.11329,-2.69141 -0.74636,-0.94746 -1.49273,-1.89492 -2.26171,-2.87109 -1.63759,-2.26891 -3.22739,-4.56923 -4.8125,-6.875 -0.72832,-1.0493 -1.45665,-2.09859 -2.20704,-3.17969 -1.75176,-2.60519 -3.37735,-5.24757 -4.98046,-7.94531 -0.0233,7.27643 -0.041,14.55286 -0.0518,21.82932 -0.005,3.37958 -0.0122,6.75913 -0.0236,10.1387 -0.0122,3.89478 -0.0178,7.78953 -0.0222,11.68432 -0.005,1.20036 -0.0103,2.40071 -0.0156,3.63744 -0.26962,13.32214 -0.26962,13.32214 5.1133,25.14772 0.40009,0.55003 0.80018,1.10005 1.2124,1.66675 3.9128,5.28007 8.30096,10.10113 12.7876,14.89575 1.11004,1.2657 2.21448,2.53635 3.3125,3.8125 2.63147,3.02313 5.32582,5.98125 8.04858,8.92187 1.04884,1.13315 2.09524,2.26857 3.13916,3.40625 2.31178,2.51702 4.63511,4.99495 7.05054,7.41407 5.92669,6.08459 5.92669,6.08459 6.26172,10.75781 -0.8125,3.6875 -0.8125,3.6875 -2.875,6.25 -3.98241,1.94883 -5.66113,1.62806 -9.9375,0.4375 -2.98128,-2.22711 -5.46125,-4.85109 -8,-7.5625 -0.6729,-0.69158 -1.34579,-1.38316 -2.03907,-2.0957 -6.60744,-6.84343 -12.771,-14.07048 -18.89843,-21.3418 -0.90303,-1.07035 -1.80611,-2.14066 -2.70923,-3.21094 -0.77658,-0.92039 -1.55316,-1.84078 -2.35327,-2.78906 -0.17427,4.55303 -0.30062,9.10408 -0.38453,13.65967 -0.035,1.54624 -0.0826,3.09226 -0.14355,4.63769 -0.0858,2.23479 -0.12481,4.46649 -0.15552,6.70264 -0.0361,0.68054 -0.0723,1.36109 -0.10948,2.06226 -0.004,5.44619 2.09164,8.11865 5.80035,11.97519 0.6576,0.64764 1.3152,1.29528 1.99273,1.96255 0.59818,0.61598 1.19636,1.23196 1.81266,1.86661 1.84024,1.88503 3.70692,3.73995 5.58187,5.59042 0.67343,0.66964 1.34686,1.33929 2.04069,2.02922 2.12332,2.11123 4.24987,4.21914 6.37728,6.32625 2.82188,2.7953 5.64044,5.59389 8.45703,8.39453 0.6458,0.63751 1.29161,1.27501 1.95698,1.93184 0.5979,0.5946 1.1958,1.18919 1.81182,1.8018 0.52515,0.51992 1.05031,1.03984 1.59138,1.57552 2.48097,2.68651 3.3487,4.24635 3.68279,7.92131 -0.3125,3.5625 -0.3125,3.5625 -1.3125,6 -2.53763,1.98252 -4.65544,2.30714 -7.84815,2.13037 -2.59115,-0.6838 -3.79859,-1.65931 -5.76904,-3.46631 -0.69215,-0.63365 -1.38429,-1.26731 -2.09741,-1.92016 -4.30128,-4.10554 -8.52765,-8.28026 -12.7229,-12.4939 -0.90944,-0.90557 -1.81887,-1.81113 -2.75586,-2.74414 -0.86303,-0.86432 -1.72606,-1.72863 -2.61524,-2.61914 -0.78173,-0.78287 -1.56347,-1.56573 -2.36889,-2.37232 -1.82251,-1.9519 -1.82251,-1.9519 -2.82251,-3.9519 -0.014,1.8316 -0.014,1.8316 -0.0283,3.7002 -0.0399,4.53275 -0.10565,9.06484 -0.1792,13.59716 -0.0282,1.96118 -0.0494,3.92247 -0.0635,5.88379 -0.0214,2.82042 -0.0681,5.63947 -0.11963,8.45947 -0.001,0.87618 -0.002,1.75236 -0.004,2.6551 -0.14636,6.09042 -0.14636,6.09042 -2.51654,9.25824 -3.54519,2.45391 -5.85115,1.91692 -10.08911,1.44604 -2.67432,-1.81163 -2.95921,-2.87761 -4,-6 -0.15414,-2.87439 -0.25748,-5.72899 -0.31641,-8.60547 -0.0208,-0.8392 -0.0416,-1.67841 -0.063,-2.54304 -0.0654,-2.67958 -0.12432,-5.35926 -0.18312,-8.03899 -0.0432,-1.81707 -0.0868,-3.63412 -0.13086,-5.45117 -0.10705,-4.45368 -0.20836,-8.90745 -0.30664,-13.36133 -1.20947,1.2723 -1.20947,1.2723 -2.44336,2.57031 -3.00603,3.15118 -6.03874,6.27551 -9.08008,9.39258 -1.31078,1.35094 -2.61429,2.70897 -3.91016,4.07422 -1.86786,1.96526 -3.7607,3.9032 -5.66015,5.83789 -0.57118,0.61247 -1.14236,1.22493 -1.73084,1.85596 -3.0619,3.0652 -5.05231,4.64529 -9.48596,4.72216 -3.68945,-0.45312 -3.68945,-0.45312 -5.62695,-1.57812 -1.531,-2.70176 -1.93828,-4.76936 -2.0625,-7.875 2.34386,-5.40832 7.00837,-8.66097 11.38671,-12.38672 20.64832,-16.5766 20.64832,-16.5766 31.0586,-39.62109 0.4606,-8.07627 -0.62436,-16.13369 -2.44531,-23.99219 -6.88495,7.5259 -6.88495,7.5259 -13.64454,15.16406 -3.60461,4.1422 -7.30445,8.18949 -11.04296,12.21094 -0.65034,0.71027 -1.30067,1.42055 -1.97071,2.15234 -0.94843,1.01901 -0.94843,1.01901 -1.91601,2.0586 -0.56292,0.60892 -1.12584,1.21784 -1.70581,1.84521 -3.11027,2.83699 -5.04036,3.58077 -9.28247,3.50635 -3.4375,-0.9375 -3.4375,-0.9375 -5.4375,-3.0625 -1.4023,-4.03159 -1.36674,-5.77478 0,-9.875 2.06208,-2.43501 4.27764,-4.58007 6.60937,-6.75781 2.06822,-1.93981 3.92589,-3.90238 5.76563,-6.05469 2.46703,-2.87821 4.99604,-5.68527 7.57519,-8.46362 4.75281,-5.12499 9.38267,-10.30979 13.70705,-15.80756 1.51606,-1.88724 3.08348,-3.7348 4.70785,-5.52966 6.92817,-8.10989 7.86516,-14.7566 7.51381,-24.99604 -0.0168,-1.46254 -0.0296,-2.92514 -0.0386,-4.38775 -0.034,-3.80879 -0.12207,-7.61439 -0.22233,-11.42194 -0.0929,-3.90153 -0.13334,-7.8036 -0.17853,-11.70593 -0.0959,-7.62644 -0.24902,-15.25027 -0.43945,-22.875 -0.41561,0.71847 -0.41561,0.71847 -0.83962,1.45145 -1.28029,2.20842 -2.566,4.41364 -3.85179,6.61886 -0.43558,0.75322 -0.87117,1.50643 -1.31995,2.28247 -3.35395,5.73944 -7.02943,11.05064 -11.07849,16.32691 -5.37783,9.34797 -5.66802,20.17652 -6.47265,30.69531 -0.16793,2.1577 -0.33906,4.31492 -0.51976,6.47159 -0.16232,1.94029 -0.31297,3.88155 -0.46291,5.82284 -0.43115,3.15712 -0.98195,5.51466 -2.45483,8.33057 -3.51825,2.3455 -4.85776,2.57991 -9,2 -2.67579,-1.82031 -2.67579,-1.82031 -5,-5 -0.61343,-3.78938 -0.47161,-7.4866 -0.3125,-11.3125 0.0226,-1.02674 0.0451,-2.05348 0.0684,-3.11133 0.0588,-2.52689 0.14086,-5.05077 0.24414,-7.57617 -2.31656,2.2876 -4.62754,4.58075 -6.9375,6.875 -0.65936,0.65098 -1.31871,1.30195 -1.99805,1.97266 -0.62842,0.62519 -1.25684,1.25039 -1.9043,1.89453 -0.87193,0.86407 -0.87193,0.86407 -1.76147,1.7456 -5.664377,6.12413 -3.686762,19.39393 -3.907175,27.38584 -0.120006,4.23007 -0.262752,8.45939 -0.401664,12.68887 -0.175048,5.36103 -0.343202,10.72199 -0.48584,16.08398 -0.11646,4.35543 -0.256364,8.70955 -0.41201,13.06375 -0.0548,1.65351 -0.100997,3.30732 -0.138321,4.96132 -0.05325,2.31037 -0.136433,4.61789 -0.226525,6.92708 -0.03918,1.31189 -0.07835,2.62377 -0.118713,3.97541 -0.878056,4.24624 -2.334972,5.77728 -5.708436,8.42596 -3.0625,0.5625 -3.0625,0.5625 -6,0 -2.15918,-1.5459 -2.15918,-1.5459 -4,-4 -0.349399,-2.75086 -0.468852,-5.08836 -0.390625,-7.82813 0.0057,-0.749 0.01132,-1.49801 0.01715,-2.26971 0.02233,-2.38471 0.07252,-4.7679 0.123474,-7.15216 0.02007,-1.61977 0.03832,-3.23956 0.05469,-4.85938 0.04403,-3.96412 0.113028,-7.92711 0.195311,-11.89062 -0.819844,0.89203 -1.639687,1.78406 -2.484375,2.70312 -1.088497,1.18234 -2.177041,2.36463 -3.265625,3.54688 -0.538828,0.58652 -1.077656,1.17305 -1.632812,1.77734 -1.055134,1.14521 -2.113655,2.28731 -3.175782,3.42603 -1.213817,1.30243 -2.41504,2.61658 -3.613286,3.93335 -1.82812,1.61328 -1.82812,1.61328 -5.32812,2.17578 -3.5,-0.5625 -3.5,-0.5625 -6,-2.6875 -1.88128,-3.60579 -1.51345,-4.99173 -0.5,-8.875 1.53125,-2.38672 1.53125,-2.38672 3.5,-4.6875 0.72316,-0.86109 1.44633,-1.72219 2.19141,-2.60938 0.76183,-0.89203 1.52367,-1.78406 2.30859,-2.70312 1.48272,-1.8096 2.96186,-3.62213 4.4375,-5.4375 0.658711,-0.80309 1.317422,-1.60617 1.996094,-2.43359 0.368349,-0.46616 0.736699,-0.93232 1.116211,-1.4126 1.450195,-1.71631 1.450195,-1.71631 3.673828,-3.95996 7.124268,-7.63518 8.265934,-14.46844 8.651367,-24.50635 0.110512,-2.06628 0.232982,-4.13104 0.36795,-6.19586 0.117038,-1.8615 0.201543,-3.72496 0.283905,-5.58832 0.955423,-6.99855 3.772811,-11.26535 8.77002,-16.11816 0.511859,-0.50383 1.023717,-1.00766 1.551086,-1.52675 1.624724,-1.59598 3.262499,-3.17767 4.902039,-4.75841 2.14488,-2.08812 4.284434,-4.18161 6.421874,-6.27734 0.51541,-0.50455 1.03083,-1.0091 1.56186,-1.52893 3.97594,-3.91479 7.70348,-7.96517 11.26627,-12.25623 0.49822,-0.59192 0.99644,-1.18384 1.50976,-1.7937 9.17304,-10.99345 17.19922,-22.3013 23.49024,-35.2063 -15.63611,10.2721 -31.1265,20.63574 -46.000004,32 -0.9871,0.75168 -0.9871,0.75168 -1.994141,1.51855 -4.054056,3.09908 -8.045115,6.26397 -12.005859,9.48145 -0.982266,0.77988 -1.964531,1.55977 -2.976562,2.36328 -1.341915,1.11955 -1.341915,1.11955 -2.710938,2.26172 -0.766992,0.63164 -1.533984,1.26328 -2.324219,1.91406 -4.40188,5.4483 -5.563301,13.35736 -7.265621,20.0586 -2.67345,10.32013 -5.51152,20.58987 -8.43433,30.84204 -0.57441,2.02386 -1.14329,4.04931 -1.70703,6.07617 -0.82832,2.9763 -1.67356,5.94731 -2.52271,8.91772 -0.24802,0.90407 -0.49605,1.80815 -0.7516,2.73961 -2.31204,7.95846 -2.31204,7.95846 -6.30699,10.8268 -3.55547,0.59258 -5.29629,0.39696 -8.4375,-1.375 -3.04405,-5.114 -0.84335,-11.8913 0.56079,-17.43213 0.45186,-1.64213 0.91233,-3.28191 1.38062,-4.91943 0.24274,-0.87369 0.48548,-1.74739 0.73558,-2.64755 0.76663,-2.75252 1.54459,-5.50168 2.32301,-8.25089 0.52615,-1.8813 1.05155,-3.76281 1.57617,-5.64453 1.27846,-4.5793 2.56708,-9.15562 3.86133,-13.73047 -0.33,-0.33 -0.66,-0.66 -1,-1 -0.48469,0.49629 -0.96938,0.99258 -1.46875,1.50391 -4.01753,4.07161 -8.10422,7.97997 -12.45703,11.6914 -1.48663,1.29345 -2.93897,2.62672 -4.36719,3.98438 -5.82063,5.47939 -5.82063,5.47939 -9.95703,7.07031 -3.8218,-0.34744 -5.27036,-1.33277 -7.75,-4.25 -0.75,-3.25 -0.75,-3.25 0,-7 3.59509,-5.61018 9.00267,-9.91789 13.96094,-14.28516 3.94247,-3.49008 7.76518,-7.10911 11.60156,-10.71484 0.71535,-0.67168 1.4307,-1.34336 2.16772,-2.0354 3.16588,-2.95016 3.16588,-2.95016 6.26978,-5.9646 -5.53489,-0.11478 -10.98167,0.0434 -16.5,0.5 -5.72939,0.4223 -11.44455,0.70188 -17.1875,0.8125 -0.77859,0.0297 -1.5571903,0.0593 -2.3593703,0.0898 -5.43219,0.0575 -5.43219,0.0575 -7.98438,-2.19531 -1.4567,-3.31869 -0.80032,-5.75281 0.0312,-9.20703 2.68428,-2.68428 4.45802,-2.53667 8.21484,-3.00391 0.9793603,-0.12212 0.9793603,-0.12212 1.9785003,-0.24672 10.75734,-1.28611 21.58038,-2.07345 32.37917,-2.92393 2.91567,-0.23149 5.82971,-0.47843 8.7439,-0.72778 0.88442,-0.0657 1.76884,-0.13148 2.68007,-0.19921 6.64072,-0.58583 11.496496,-2.38311 16.667583,-6.71876 0.641953,-0.5315 1.283906,-1.063 1.945312,-1.6106 0.665156,-0.55905 1.330313,-1.1181 2.015625,-1.69409 6.650759,-5.50341 13.425413,-10.75561 20.375,-15.875 -10.773786,1.34096 -21.219911,3.5305 -31.77002,6.0437 -17.88019,4.23934 -17.88019,4.23934 -23.22998,3.9563 -3.125,-2.0625 -3.125,-2.0625 -5,-5 -0.5625,-3.0625 -0.5625,-3.0625 0,-6 2.86843,-3.54832 5.20618,-4.65126 9.61719,-5.60547 1.14525,-0.25652 2.2905,-0.51305 3.47046,-0.77734 1.24982,-0.26555 2.49965,-0.5311 3.78735,-0.80469 1.3234,-0.29379 2.64639,-0.58941 3.96899,-0.88672 2.85793,-0.64148 5.71714,-1.2767 8.5774,-1.90771 48.375164,-7.34104 48.375164,-7.34104 86.578664,-33.01803 1.86026,-3.88126 2.25188,-6.97458 2.25828,-11.26221 0.0102,-1.89265 0.0102,-1.89265 0.0207,-3.82354 -0.002,-1.39069 -0.005,-2.78138 -0.008,-4.17206 0.004,-1.47044 0.01,-2.94088 0.0158,-4.41132 0.0115,-3.16204 0.017,-6.32402 0.0179,-9.48608 0.002,-5.00057 0.02,-10.00101 0.0408,-15.00153 0.0492,-12.41899 0.0801,-24.838007 0.1013,-37.257073 0.0165,-9.654782 0.0393,-19.309446 0.083,-28.964148 0.0218,-4.970411 0.0298,-9.940596 0.0276,-14.911051 0.002,-3.092298 0.0157,-6.184449 0.0332,-9.276695 0.006,-1.433069 0.006,-2.866169 0.001,-4.29924 -0.006,-1.957619 0.008,-3.91527 0.0228,-5.872841 0.003,-1.642573 0.003,-1.642573 0.006,-3.3183292 0.43143,-3.350228 1.38546,-5.2401855 3.3791,-7.9438782 2.85324,-1.4266222 4.83454,-1.31033869 8,-1.00000001 z"
     fill="#f1f2f3"
     id="path1" />
</svg>
